<svg width="1107" height="1341" viewBox="0 0 1107 1341" fill="none" xmlns="http://www.w3.org/2000/svg">
    <path d="M1464.43 981.556C1463.86 1082.44 1375.97 1150.8 1295.89 1112.66L78.8704 533.088C-22.9456 484.6 -22.0452 316.17 80.2829 268.847L1303.8 -296.986C1384.32 -334.225 1471.51 -264.779 1470.93 -163.853L1464.43 981.556Z" fill="url(#paint0_linear)"/>
    <path d="M1462.93 1198.08C1462.65 1248.08 1440.73 1289.95 1409.05 1314.59C1377.4 1339.21 1336.01 1346.64 1296.53 1327.84L79.5154 748.265C29.2632 724.333 4.23583 670.733 4.52266 617.07C4.80948 563.407 30.4083 510.096 80.9124 486.739L1304.43 -79.0931C1344.12 -97.4498 1385.45 -89.5338 1416.84 -64.5267C1448.25 -39.5061 1469.72 2.64151 1469.43 52.6701L1462.93 1198.08Z" stroke="url(#paint1_linear)" stroke-width="3"/>
    <path d="M1794.4 719.32C1794.11 769.325 1772.19 811.193 1740.52 835.83C1708.87 860.453 1667.48 867.882 1628 849.082L410.982 269.506C360.73 245.574 335.703 191.974 335.989 138.311C336.276 84.6476 361.875 31.3365 412.379 7.98026L1635.9 -557.852C1675.59 -576.209 1716.92 -568.293 1748.31 -543.286C1779.72 -518.265 1801.18 -476.118 1800.9 -426.089L1794.4 719.32Z" stroke="white" stroke-width="3"/>
    <defs>
        <linearGradient id="paint0_linear" x1="1095.63" y1="243.714" x2="770.951" y2="903.406" gradientUnits="userSpaceOnUse">
            <stop stop-color="#FFE2C7"/>
            <stop offset="1" stop-color="#EDF9FB"/>
        </linearGradient>
        <linearGradient id="paint1_linear" x1="-131.163" y1="829.116" x2="888.627" y2="10.5624" gradientUnits="userSpaceOnUse">
            <stop stop-color="white" stop-opacity="0"/>
            <stop offset="1" stop-color="white"/>
        </linearGradient>
    </defs>
</svg>
